<svg width="225" height="225" version="1.1" xmlns="http://www.w3.org/2000/svg" desc="Created with imagetracer.js version 1.2.6" ><path fill="rgb(23,21,23)" stroke="rgb(23,21,23)" stroke-width="1" opacity="0.23529411764705882" d="M 52.5 63 L 53 66.5 L 52 66.5 L 52.5 63 Z " /><path fill="rgb(23,21,23)" stroke="rgb(23,21,23)" stroke-width="1" opacity="0.23529411764705882" d="M 77.5 73 L 78.5 75 L 77.5 73 Z " /><path fill="rgb(23,21,23)" stroke="rgb(23,21,23)" stroke-width="1" opacity="0.23529411764705882" d="M 91 73 L 102 73.5 L 92 74 L 91.5 76 L 91 73 Z " /><path fill="rgb(23,21,23)" stroke="rgb(23,21,23)" stroke-width="1" opacity="0.23529411764705882" d="M 112 73 L 123 73 L 123 76.5 L 122 76.5 L 121.5 74 L 113.5 74 L 112 74.5 L 112 73 Z " /><path fill="rgb(23,21,23)" stroke="rgb(23,21,23)" stroke-width="1" opacity="0.23529411764705882" d="M 133 73 L 143.5 73 L 144 75.5 L 143 75.5 L 142.5 74 L 134.5 74 L 133 74.5 L 133 73 Z " /><path fill="rgb(23,21,23)" stroke="rgb(23,21,23)" stroke-width="1" opacity="0.23529411764705882" d="M 111.5 76 L 112 78.5 L 111 78.5 L 111.5 76 Z " /><path fill="rgb(23,21,23)" stroke="rgb(23,21,23)" stroke-width="1" opacity="0.23529411764705882" d="M 46.5 77 L 43.5 81 L 46.5 77 Z " /><path fill="rgb(23,21,23)" stroke="rgb(23,21,23)" stroke-width="1" opacity="0.23529411764705882" d="M 90.5 77 L 91 79.5 L 90 79.5 L 90.5 77 Z " /><path fill="rgb(23,21,23)" stroke="rgb(23,21,23)" stroke-width="1" opacity="0.23529411764705882" d="M 142.5 77 L 143 79.5 L 142 79.5 L 142.5 77 Z " /><path fill="rgb(23,21,23)" stroke="rgb(23,21,23)" stroke-width="1" opacity="0.23529411764705882" d="M 121.5 78 L 122 80.5 L 121 80.5 L 121.5 78 Z " /><path fill="rgb(23,21,23)" stroke="rgb(23,21,23)" stroke-width="1" opacity="0.23529411764705882" d="M 168.5 80 L 172 80.5 L 168.5 81 L 168.5 80 Z " /><path fill="rgb(23,21,23)" stroke="rgb(23,21,23)" stroke-width="1" opacity="0.23529411764705882" d="M 141.5 81 L 142 83.5 L 141 83.5 L 141.5 81 Z " /><path fill="rgb(23,21,23)" stroke="rgb(23,21,23)" stroke-width="1" opacity="0.23529411764705882" d="M 174.5 81 L 175 82.5 L 173 83.5 L 174.5 81 Z " /><path fill="rgb(23,21,23)" stroke="rgb(23,21,23)" stroke-width="1" opacity="0.23529411764705882" d="M 120.5 82 L 121 84.5 L 120 84.5 L 120.5 82 Z " /><path fill="rgb(23,21,23)" stroke="rgb(23,21,23)" stroke-width="1" opacity="0.23529411764705882" d="M 82.5 85 L 89 85.5 L 82.5 86 L 82.5 85 Z " /><path fill="rgb(23,21,23)" stroke="rgb(23,21,23)" stroke-width="1" opacity="0.23529411764705882" d="M 169.5 86 L 169 87.5 L 168.5 90 L 168 87.5 L 169.5 86 Z " /><path fill="rgb(23,21,23)" stroke="rgb(23,21,23)" stroke-width="1" opacity="0.23529411764705882" d="M 46.5 90 L 47 92 L 43.5 94 L 46.5 90 Z " /><path fill="rgb(23,21,23)" stroke="rgb(23,21,23)" stroke-width="1" opacity="0.23529411764705882" d="M 139.5 90 L 140 92 L 148.5 92 L 149.5 91 L 150 93 L 139.5 93 L 139.5 90 Z " /><path fill="rgb(23,21,23)" stroke="rgb(23,21,23)" stroke-width="1" opacity="0.23529411764705882" d="M 176.5 90 L 175.5 92 L 176.5 90 Z " /><path fill="rgb(23,21,23)" stroke="rgb(23,21,23)" stroke-width="1" opacity="0.23529411764705882" d="M 97.5 91 L 98.5 92 L 108 92.5 L 97 93 L 97.5 91 Z " /><path fill="rgb(23,21,23)" stroke="rgb(23,21,23)" stroke-width="1" opacity="0.23529411764705882" d="M 118.5 91 L 119.5 92 L 129 92.5 L 118 93 L 118.5 91 Z " /><path fill="rgb(23,21,23)" stroke="rgb(23,21,23)" stroke-width="1" opacity="0.23529411764705882" d="M 134.5 96 L 157 96.5 L 134.5 97 L 134.5 96 Z " /><path fill="rgb(23,21,23)" stroke="rgb(23,21,23)" stroke-width="1" opacity="0.23529411764705882" d="M 161.5 97 L 162 99.5 L 161 99.5 L 161.5 97 Z " /><path fill="rgb(23,21,23)" stroke="rgb(23,21,23)" stroke-width="1" opacity="0.23529411764705882" d="M 176.5 98 L 175.5 100 L 176.5 98 Z " /><path fill="rgb(23,21,23)" stroke="rgb(23,21,23)" stroke-width="1" opacity="0.23529411764705882" d="M 86.5 101 L 87.5 103 L 86.5 101 Z " /><path fill="rgb(23,21,23)" stroke="rgb(23,21,23)" stroke-width="1" opacity="0.23529411764705882" d="M 89.5 108 L 90 112.5 L 89 112.5 L 89.5 108 Z " /><path fill="rgb(23,21,23)" stroke="rgb(23,21,23)" stroke-width="1" opacity="0.23529411764705882" d="M 86.5 120 L 85.5 122 L 86.5 120 Z " /><path fill="rgb(23,21,23)" stroke="rgb(23,21,23)" stroke-width="1" opacity="0.23529411764705882" d="M 109.5 127 L 112 128.5 L 110.5 129 L 109.5 127 Z " /><path fill="rgb(23,21,23)" stroke="rgb(23,21,23)" stroke-width="1" opacity="0.23529411764705882" d="M 38.5 128 L 44 128.5 L 38.5 129 L 38.5 128 Z " /><path fill="rgb(23,21,23)" stroke="rgb(23,21,23)" stroke-width="1" opacity="0.23529411764705882" d="M 152.5 130 L 151.5 132 L 152.5 130 Z " /><path fill="rgb(23,21,23)" stroke="rgb(23,21,23)" stroke-width="1" opacity="0.23529411764705882" d="M 154.5 148 L 158 148.5 L 154.5 149 L 154.5 148 Z " /><path fill="rgb(23,21,23)" stroke="rgb(23,21,23)" stroke-width="1" opacity="0.23529411764705882" d="M 32.5 155 L 34.5 158 Q 35.8 155.8 37 158.5 Q 36 163 38.5 164 L 43 163 L 43.5 161 L 44 162.5 L 38.5 165 Q 35 163.5 35.5 158 L 33.5 162 L 33 159.5 L 33.5 158 Q 30.5 157.1 32 161.5 L 31 161.5 L 32.5 155 Z " /><path fill="rgb(23,21,23)" stroke="rgb(23,21,23)" stroke-width="1" opacity="0.23529411764705882" d="M 42.5 155 L 43.5 157 L 42.5 155 Z " /><path fill="rgb(23,21,23)" stroke="rgb(23,21,23)" stroke-width="1" opacity="0.23529411764705882" d="M 66 155 Q 69 153.8 68 157.5 L 66 156.5 L 66 155 Z " /><path fill="rgb(23,21,23)" stroke="rgb(23,21,23)" stroke-width="1" opacity="0.23529411764705882" d="M 72.5 155 L 74 155.5 L 71.5 157 L 72.5 155 Z " /><path fill="rgb(23,21,23)" stroke="rgb(23,21,23)" stroke-width="1" opacity="0.23529411764705882" d="M 80.5 155 L 81.5 157 L 80.5 155 Z " /><path fill="rgb(23,21,23)" stroke="rgb(23,21,23)" stroke-width="1" opacity="0.23529411764705882" d="M 91.5 155 L 93 155.5 L 90.5 157 L 91.5 155 Z " /><path fill="rgb(23,21,23)" stroke="rgb(23,21,23)" stroke-width="1" opacity="0.23529411764705882" d="M 95.5 155 L 96.5 157 L 95.5 155 Z " /><path fill="rgb(23,21,23)" stroke="rgb(23,21,23)" stroke-width="1" opacity="0.23529411764705882" d="M 103.5 155 L 107.5 164 L 111 162.5 L 110.5 161 L 112 164 L 107.5 165 L 105 162.5 L 103.5 155 Z " /><path fill="rgb(23,21,23)" stroke="rgb(23,21,23)" stroke-width="1" opacity="0.23529411764705882" d="M 112 155 L 114 155.5 L 112 156.5 L 112 155 Z " /><path fill="rgb(23,21,23)" stroke="rgb(23,21,23)" stroke-width="1" opacity="0.23529411764705882" d="M 122.5 155 L 122.5 158 L 120 157.5 L 122.5 155 Z " /><path fill="rgb(23,21,23)" stroke="rgb(23,21,23)" stroke-width="1" opacity="0.23529411764705882" d="M 167.5 155 L 166.5 157 L 167.5 155 Z " /><path fill="rgb(23,21,23)" stroke="rgb(23,21,23)" stroke-width="1" opacity="0.23529411764705882" d="M 178.5 155 L 177.5 157 L 178.5 155 Z " /><path fill="rgb(23,21,23)" stroke="rgb(23,21,23)" stroke-width="1" opacity="0.23529411764705882" d="M 75.5 157 L 78 157.5 Q 75.9 160.8 75.5 157 Z " /><path fill="rgb(23,21,23)" stroke="rgb(23,21,23)" stroke-width="1" opacity="0.23529411764705882" d="M 79.5 157 L 81 159.5 L 80 159.5 L 79.5 157 Z " /><path fill="rgb(23,21,23)" stroke="rgb(23,21,23)" stroke-width="1" opacity="0.23529411764705882" d="M 92.5 157 L 91.5 159 L 92.5 157 Z " /><path fill="rgb(23,21,23)" stroke="rgb(23,21,23)" stroke-width="1" opacity="0.23529411764705882" d="M 153.5 157 L 154 159.5 L 153 159.5 L 153.5 157 Z " /><path fill="rgb(23,21,23)" stroke="rgb(23,21,23)" stroke-width="1" opacity="0.23529411764705882" d="M 161.5 157 L 164 158.5 L 161 159 L 161.5 157 Z " /><path fill="rgb(23,21,23)" stroke="rgb(23,21,23)" stroke-width="1" opacity="0.23529411764705882" d="M 175.5 157 L 176 160.5 L 175 160.5 L 175.5 157 Z " /><path fill="rgb(23,21,23)" stroke="rgb(23,21,23)" stroke-width="1" opacity="0.23529411764705882" d="M 187.5 157 L 188 159.5 L 187 159.5 L 187.5 157 Z " /><path fill="rgb(23,21,23)" stroke="rgb(23,21,23)" stroke-width="1" opacity="0.23529411764705882" d="M 193.5 157 L 196 158 Q 197.7 162.1 193.5 161 L 193.5 162 Q 196.8 160.9 196 163.5 Q 194.6 166.3 190 165 Q 191.3 162 187.5 163 L 186.5 161 L 189.5 162 L 191 161.5 Q 189.7 165.7 194.5 164 L 194.5 163 Q 191.2 164.1 192 161.5 L 195 159.5 L 193 159 L 193.5 157 Z " /><path fill="rgb(23,21,23)" stroke="rgb(23,21,23)" stroke-width="1" opacity="0.23529411764705882" d="M 47.5 158 L 48.5 162 L 50 161.5 Q 48.5 164.5 47 161.5 L 47.5 158 Z " /><path fill="rgb(23,21,23)" stroke="rgb(23,21,23)" stroke-width="1" opacity="0.23529411764705882" d="M 72.5 158 L 73 165 Q 69.3 166.5 70 163.5 L 69 163.5 Q 69.7 166.1 67 165 L 66 160.5 L 67 160.5 L 68.5 163 L 70.5 160 L 71.5 164 L 72.5 158 Z " /><path fill="rgb(23,21,23)" stroke="rgb(23,21,23)" stroke-width="1" opacity="0.23529411764705882" d="M 86.5 158 L 87 161.5 L 86 161.5 L 86.5 158 Z " /><path fill="rgb(23,21,23)" stroke="rgb(23,21,23)" stroke-width="1" opacity="0.23529411764705882" d="M 129.5 158 L 130 162 Q 134.1 160.7 133 164 L 136.5 164 L 136.5 163 L 135 162.5 L 138 162 L 137.5 165 L 126.5 165 L 124.5 162 L 123 162.5 Q 125.2 158.7 127.5 164 L 131 163.5 L 129 163 L 129.5 158 Z " /><path fill="rgb(23,21,23)" stroke="rgb(23,21,23)" stroke-width="1" opacity="0.23529411764705882" d="M 145.5 158 L 146 160.5 L 145 160.5 L 145.5 158 Z " /><path fill="rgb(23,21,23)" stroke="rgb(23,21,23)" stroke-width="1" opacity="0.23529411764705882" d="M 168.5 158 Q 171.5 158.5 171 162.5 Q 170.5 165.5 166.5 165 L 166.5 164 L 170 162.5 L 168.5 158 Z " /><path fill="rgb(23,21,23)" stroke="rgb(23,21,23)" stroke-width="1" opacity="0.23529411764705882" d="M 59.5 159 L 58.5 161 L 59.5 159 Z " /><path fill="rgb(23,21,23)" stroke="rgb(23,21,23)" stroke-width="1" opacity="0.23529411764705882" d="M 74.5 159 L 76.5 164 L 81 163 L 81.5 161 L 82 162.5 L 76.5 165 Q 72.7 163.7 74.5 159 Z " /><path fill="rgb(23,21,23)" stroke="rgb(23,21,23)" stroke-width="1" opacity="0.23529411764705882" d="M 98.5 159 L 99.5 161 L 101 160.5 L 100 165 Q 95.9 166.7 97 162.5 L 93.5 165 L 91 164.5 L 96 161.5 L 96.5 160 L 98.5 164 L 99 161.5 L 98.5 159 Z " /><path fill="rgb(23,21,23)" stroke="rgb(23,21,23)" stroke-width="1" opacity="0.23529411764705882" d="M 107.5 159 L 109 162.5 L 107 161.5 L 107.5 159 Z " /><path fill="rgb(23,21,23)" stroke="rgb(23,21,23)" stroke-width="1" opacity="0.23529411764705882" d="M 119.5 159 L 121.5 164 L 124 164.5 L 121.5 165 Q 117.7 163.7 119.5 159 Z " /><path fill="rgb(23,21,23)" stroke="rgb(23,21,23)" stroke-width="1" opacity="0.23529411764705882" d="M 127.5 159 L 128 161.5 L 127 161.5 L 127.5 159 Z " /><path fill="rgb(23,21,23)" stroke="rgb(23,21,23)" stroke-width="1" opacity="0.23529411764705882" d="M 45.5 160 L 46 164 Q 49.8 165 51 162.5 L 51.5 161 L 53.5 164 L 55 164.5 L 53.5 165 Q 51.5 161 49.5 165 Q 45.8 165.8 45 163.5 L 45.5 160 Z " /><path fill="rgb(23,21,23)" stroke="rgb(23,21,23)" stroke-width="1" opacity="0.23529411764705882" d="M 55.5 160 L 57.5 164 L 58.5 162 L 59 165 L 56 163.5 L 55.5 160 Z " /><path fill="rgb(23,21,23)" stroke="rgb(23,21,23)" stroke-width="1" opacity="0.23529411764705882" d="M 94.5 160 L 92.5 163 L 91.5 161 Q 93 163.5 94.5 160 Z " /><path fill="rgb(23,21,23)" stroke="rgb(23,21,23)" stroke-width="1" opacity="0.23529411764705882" d="M 116.5 160 L 117 162.5 L 116 162.5 L 116.5 160 Z " /><path fill="rgb(23,21,23)" stroke="rgb(23,21,23)" stroke-width="1" opacity="0.23529411764705882" d="M 135.5 160 L 138 160.5 L 135.5 161 L 135.5 160 Z " /><path fill="rgb(23,21,23)" stroke="rgb(23,21,23)" stroke-width="1" opacity="0.23529411764705882" d="M 155.5 160 L 155 161.5 L 153.5 165 Q 150.5 165.9 152 161.5 L 153 161.5 L 153.5 164 L 155.5 160 Z " /><path fill="rgb(23,21,23)" stroke="rgb(23,21,23)" stroke-width="1" opacity="0.23529411764705882" d="M 161.5 160 L 164 160.5 L 161.5 161 L 161.5 160 Z " /><path fill="rgb(23,21,23)" stroke="rgb(23,21,23)" stroke-width="1" opacity="0.23529411764705882" d="M 181.5 160 L 182 162.5 L 181 162.5 L 181.5 160 Z " /><path fill="rgb(23,21,23)" stroke="rgb(23,21,23)" stroke-width="1" opacity="0.23529411764705882" d="M 38.5 161 L 39.5 163 L 38.5 161 Z " /><path fill="rgb(23,21,23)" stroke="rgb(23,21,23)" stroke-width="1" opacity="0.23529411764705882" d="M 76.5 161 L 77.5 163 L 76.5 161 Z " /><path fill="rgb(23,21,23)" stroke="rgb(23,21,23)" stroke-width="1" opacity="0.23529411764705882" d="M 88.5 161 L 90 163.5 L 89 163.5 L 88.5 161 Z " /><path fill="rgb(23,21,23)" stroke="rgb(23,21,23)" stroke-width="1" opacity="0.23529411764705882" d="M 148.5 161 L 149.5 164 L 150.5 161 L 151 163.5 L 148.5 165 L 146.5 165 Q 140.7 167.1 142 162.5 L 143 162.5 Q 142.1 165.5 146.5 164 L 146.5 163 L 145 162.5 L 148.5 161 Z " /><path fill="rgb(23,21,23)" stroke="rgb(23,21,23)" stroke-width="1" opacity="0.23529411764705882" d="M 168.5 161 L 167.5 163 L 165 162.5 L 168.5 161 Z " /><path fill="rgb(23,21,23)" stroke="rgb(23,21,23)" stroke-width="1" opacity="0.23529411764705882" d="M 161.5 162 Q 165.7 160.9 164 165 L 158.5 165 L 158 163.5 L 159.5 164 L 163 163.5 L 161.5 162 Z " /><path fill="rgb(23,21,23)" stroke="rgb(23,21,23)" stroke-width="1" opacity="0.23529411764705882" d="M 172.5 162 L 173.5 164 L 174.5 162 L 175 165 Q 170.3 166.5 172.5 162 Z " /><path fill="rgb(23,21,23)" stroke="rgb(23,21,23)" stroke-width="1" opacity="0.23529411764705882" d="M 184.5 162 L 185 164 L 189 164.5 L 184 165 L 184.5 162 Z " /><path fill="rgb(23,21,23)" stroke="rgb(23,21,23)" stroke-width="1" opacity="0.23529411764705882" d="M 30.5 163 L 33 164.5 L 31.5 165 L 30.5 163 Z " /><path fill="rgb(23,21,23)" stroke="rgb(23,21,23)" stroke-width="1" opacity="0.23529411764705882" d="M 63.5 163 L 66 163.5 Q 66.7 166.5 63 165 L 63.5 163 Z " /><path fill="rgb(23,21,23)" stroke="rgb(23,21,23)" stroke-width="1" opacity="0.23529411764705882" d="M 83.5 163 L 86 163.5 Q 86.7 166.5 83 165 L 83.5 163 Z " /><path fill="rgb(23,21,23)" stroke="rgb(23,21,23)" stroke-width="1" opacity="0.23529411764705882" d="M 103.5 163 L 104 165 L 101 164.5 L 103.5 163 Z " /><path fill="rgb(0,0,0)" stroke="rgb(0,0,0)" stroke-width="1" opacity="0" d="M 0 0 L 225 0 L 225 225 L 0 225 L 0 0 Z M 45 58 L 42 59 Q 36 61 37 70 L 44 74 L 48 73 L 53 67 L 52 62 Q 51 57 45 58 Z M 26 73 L 18 105 L 19 106 L 29 106 L 30 105 L 34 91 L 36 99 L 38 100 L 46 93 L 37 126 L 39 129 Q 43 130 45 128 L 47 129 L 49 128 L 50 120 L 62 77 L 62 73 L 51 73 L 42 83 L 38 76 L 38 73 L 26 73 Z M 69 73 L 62 91 L 63 93 L 72 93 L 74 86 Q 76 81 82 82 L 84 73 Q 80 72 78 75 L 78 74 L 69 73 Z M 91 73 L 89 83 L 99 83 L 102 77 L 102 73 L 91 73 Z M 112 73 L 110 82 L 111 83 L 120 83 L 120 86 L 120 88 L 118 92 L 119 93 L 129 93 L 128 92 L 131 86 L 131 83 L 121 83 L 123 77 L 123 73 L 112 73 Z M 133 73 L 131 81 L 132 83 L 141 83 L 139 91 L 140 93 L 150 93 L 152 85 L 151 83 L 142 83 L 144 76 L 144 73 L 133 73 Z M 169 80 L 162 83 L 160 87 L 160 95 L 161 96 L 161 103 L 153 130 Q 151 134 150 131 L 38 131 L 35 132 L 32 144 L 32 149 L 152 149 L 153 148 L 155 149 L 161 148 L 165 143 Q 166 136 163 134 L 163 129 L 170 104 Q 171 100 176 100 L 180 95 L 180 88 L 174 93 L 171 92 Q 167 93 169 88 L 174 84 L 175 81 L 169 80 Z M 99 83 L 97 92 L 98 93 L 108 93 L 110 86 L 110 83 L 99 83 Z M 83 85 L 79 93 L 88 93 L 89 90 L 89 85 L 83 85 Z M 73 95 L 64 98 Q 58 102 55 110 Q 54 119 57 123 Q 60 128 68 129 Q 77 130 82 126 Q 88 122 90 113 L 88 103 L 80 96 L 73 95 Z M 96 96 L 88 128 L 97 128 L 98 129 L 100 127 Q 99 121 102 119 Q 101 114 104 115 L 104 118 L 111 129 L 120 128 L 128 99 L 128 96 L 117 96 L 114 106 Q 115 110 112 109 L 107 98 L 107 96 L 96 96 Z M 132 96 L 129 100 L 128 106 L 137 107 L 131 127 Q 130 129 133 128 L 135 128 Q 139 127 141 129 L 143 127 L 148 108 L 149 106 L 157 106 L 159 100 L 159 96 L 132 96 Z M 180 96 L 172 125 L 173 128 L 183 128 L 185 123 Q 184 118 188 120 L 190 128 L 203 128 L 199 119 L 202 117 L 207 111 L 206 102 Q 203 97 198 96 L 180 96 Z M 172 131 Q 167 138 166 148 L 168 149 L 181 149 L 185 135 L 186 135 L 182 148 L 184 149 L 192 149 L 194 146 L 194 148 Q 195 150 200 149 L 204 136 L 204 132 L 198 132 L 195 145 L 194 145 L 196 135 Q 198 133 196 132 L 188 132 L 187 133 L 185 132 L 173 132 L 172 131 Z M 30 155 L 31 158 Q 32 162 30 164 L 33 165 Q 33 159 37 156 L 36 155 L 33 157 Q 34 153 30 155 Z M 41 155 L 36 159 Q 35 164 39 165 L 43 164 Q 45 163 44 157 L 41 155 Z M 46 155 L 45 164 Q 46 166 50 165 L 52 163 L 53 158 Q 54 154 52 155 Q 49 156 51 158 L 50 161 L 48 162 L 49 157 Q 50 153 46 155 Z M 55 155 L 55 157 L 52 164 L 55 165 L 56 161 L 56 164 L 59 165 L 58 162 L 60 159 L 60 157 Q 61 154 55 155 Z M 66 155 L 63 164 Q 62 167 66 165 L 67 162 L 67 165 Q 70 166 69 164 L 70 164 Q 69 167 73 165 L 73 157 L 74 156 L 73 155 L 70 160 L 68 160 L 68 155 L 66 155 Z M 76 155 L 74 160 Q 73 164 77 165 L 81 164 L 83 160 L 82 157 Q 81 154 76 155 Z M 84 155 L 85 158 L 83 164 Q 82 167 86 165 L 87 162 Q 85 156 89 157 L 89 155 L 84 155 Z M 92 155 L 88 162 L 89 164 L 94 165 Q 98 164 97 157 Q 96 154 92 155 Z M 99 155 L 97 165 Q 101 167 100 163 L 101 163 Q 100 167 104 165 L 103 163 L 105 157 Q 104 154 99 155 Z M 109 155 L 105 160 Q 104 164 108 165 L 111 164 Q 113 165 112 163 Q 111 160 110 162 L 108 162 L 108 157 L 114 156 L 115 160 L 114 162 Q 113 166 116 165 L 119 157 L 120 155 Q 117 154 118 157 L 116 158 L 116 155 L 109 155 Z M 123 155 L 119 160 Q 118 164 122 165 L 125 164 L 127 165 L 138 165 Q 140 161 136 162 L 136 161 Q 139 162 138 159 L 135 158 L 140 156 L 134 155 L 133 162 L 130 162 L 130 156 L 129 155 L 129 157 Q 126 158 127 163 L 125 161 L 124 162 Q 121 163 122 159 Q 123 156 127 157 Q 128 153 123 155 Z M 144 155 L 142 165 L 148 164 L 150 165 L 152 159 Q 153 154 150 155 L 148 162 L 145 162 L 147 156 L 144 155 Z M 154 155 L 152 165 L 155 164 Q 154 159 158 161 L 156 157 L 159 156 L 154 155 Z M 160 155 L 158 164 L 159 165 L 164 165 Q 166 161 162 162 L 162 161 Q 166 162 164 158 L 162 158 L 165 157 L 165 155 L 160 155 Z M 168 155 L 166 157 L 168 161 Q 169 164 165 162 L 167 165 Q 171 166 171 163 Q 172 158 168 158 L 171 157 Q 172 154 168 155 Z M 173 155 L 174 158 L 172 163 Q 171 167 175 165 L 176 157 L 179 156 L 180 160 L 179 162 Q 178 166 181 165 L 183 159 Q 182 156 185 157 Q 186 154 184 155 L 182 158 L 181 158 L 181 155 L 173 155 Z M 186 155 L 184 163 L 184 165 L 189 165 L 190 163 L 190 165 Q 195 166 196 164 Q 197 161 194 162 L 194 161 Q 198 162 196 158 L 194 158 L 197 157 L 197 155 L 192 155 L 191 161 L 187 162 L 188 160 Q 190 154 186 155 Z " /><path fill="rgb(0,0,0)" stroke="rgb(0,0,0)" stroke-width="1" opacity="0" d="M 70.5 106 Q 76.8 104.8 78 108.5 Q 79.1 116.1 74.5 118 L 70.5 119 L 67 116.5 L 66 111.5 L 70.5 106 Z " /><path fill="rgb(0,0,0)" stroke="rgb(0,0,0)" stroke-width="1" opacity="0" d="M 189 106 L 195 106 L 195 109.5 Q 193.4 112.5 188 111 L 189 106 Z " /><path fill="rgb(0,0,0)" stroke="rgb(0,0,0)" stroke-width="1" opacity="0" d="M 153 136 L 158.5 136 L 159 137.5 L 160 140.5 L 159 143 Q 153.5 144.3 152 140.5 L 153 136 Z " /><path fill="rgb(0,0,0)" stroke="rgb(0,0,0)" stroke-width="1" opacity="0" d="M 39 157 Q 43.5 155.3 42 160.5 L 39.5 162 Q 36.8 160.8 39 159.5 L 39 157 Z " /><path fill="rgb(0,0,0)" stroke="rgb(0,0,0)" stroke-width="1" opacity="0" d="M 56 157 Q 59 156 58 159 Q 55 160 56 157 Z " /><path fill="rgb(0,0,0)" stroke="rgb(0,0,0)" stroke-width="1" opacity="0" d="M 78.5 157 L 80 160.5 L 77.5 162 L 76 159.5 L 78.5 157 Z " /><path fill="rgb(0,0,0)" stroke="rgb(0,0,0)" stroke-width="1" opacity="0" d="M 93.5 157 L 95 159.5 Q 93 164 91 160.5 L 93.5 157 Z " /><path fill="rgb(0,0,0)" stroke="rgb(0,0,0)" stroke-width="1" opacity="0" d="M 101 157 L 103 157.5 L 101 158.5 L 101 157 Z " /><path fill="rgb(29,57,72)" stroke="rgb(29,57,72)" stroke-width="1" opacity="0.9568627450980393" d="M 45.5 58 L 51 60 Q 52.6 62.1 52 67.5 L 48.5 72 L 41.5 73 L 38 70.5 L 37 65.5 L 40.5 60 L 45.5 58 Z " /><path fill="rgb(29,57,72)" stroke="rgb(29,57,72)" stroke-width="1" opacity="0.9568627450980393" d="M 27.5 73 L 36.5 73 L 38 74.5 L 40 83 L 47 77.5 L 50.5 73 L 61.5 73 L 62 75.5 L 48 128 L 37.5 128 L 37 126.5 L 47 90.5 L 43 93.5 L 37.5 100 L 33.5 90 L 29 106 L 18.5 106 L 18 104.5 L 21 96.5 L 25 77.5 L 27.5 73 Z " /><path fill="rgb(29,57,72)" stroke="rgb(29,57,72)" stroke-width="1" opacity="0.9568627450980393" d="M 68 73 L 76.5 73 L 77 75 L 78.5 75 Q 79.8 72 84 73 L 82 82 Q 75.6 80.8 74 85.5 L 72 93 L 62.5 93 L 62 91.5 L 68 73 Z " /><path fill="rgb(29,57,72)" stroke="rgb(29,57,72)" stroke-width="1" opacity="0.9568627450980393" d="M 92 74 L 102 74.5 L 98.5 83 L 90.5 83 L 90 80.5 L 92 74 Z " /><path fill="rgb(29,57,72)" stroke="rgb(29,57,72)" stroke-width="1" opacity="0.9568627450980393" d="M 113.5 74 L 122 74 L 122 77.5 L 119.5 83 L 111 83 L 111 79.5 L 113.5 74 Z " /><path fill="rgb(29,57,72)" stroke="rgb(29,57,72)" stroke-width="1" opacity="0.9568627450980393" d="M 134.5 74 L 142.5 74 L 143 76.5 L 141 83 L 131.5 83 L 130 84.5 L 129 90.5 L 127.5 92 L 119.5 92 L 119 89.5 L 121 83 L 130.5 83 L 132 81.5 Q 131.5 76 134.5 74 Z " /><path fill="rgb(29,57,72)" stroke="rgb(29,57,72)" stroke-width="1" opacity="0.9568627450980393" d="M 166.5 81 L 173.5 81 L 174 82.5 L 168 87.5 L 170.5 93 L 172.5 94 L 180 89 Q 180.7 95 178 98 L 171 101 L 162 131.5 L 165 137.5 L 165 141.5 L 161.5 147 L 152 148 Q 153.1 145.3 150.5 146 Q 146.1 144.4 147 137.5 L 153 130.5 L 162 97.5 Q 159 94.5 160 87.5 L 164.5 82 L 166.5 81 Z M 157 135 L 153 136 L 152 139 Q 152 144 156 144 L 159 143 Q 161 142 160 138 L 157 135 Z " /><path fill="rgb(29,57,72)" stroke="rgb(29,57,72)" stroke-width="1" opacity="0.9568627450980393" d="M 100 83 L 110 83.5 L 108 92 L 98.5 92 L 98 89.5 L 100 83 Z " /><path fill="rgb(29,57,72)" stroke="rgb(29,57,72)" stroke-width="1" opacity="0.9568627450980393" d="M 142.5 83 L 151 83 L 151 86.5 L 148.5 92 L 140 92 L 140 88.5 L 142.5 83 Z " /><path fill="rgb(29,57,72)" stroke="rgb(29,57,72)" stroke-width="1" opacity="0.9568627450980393" d="M 81 86 L 89 86 L 89 88.5 L 86.5 93 L 80 93 L 80 89.5 L 81 86 Z " /><path fill="rgb(29,57,72)" stroke="rgb(29,57,72)" stroke-width="1" opacity="0.9568627450980393" d="M 68.5 96 L 78.5 96 L 86 100.5 Q 90.9 104.6 89 115.5 L 82.5 125 L 73.5 129 L 68.5 129 Q 61.8 127.8 58 123.5 Q 53.8 119.7 55 110.5 Q 57.1 103.1 62.5 99 L 68.5 96 Z M 73 105 L 68 107 L 66 112 Q 65 118 70 119 L 74 119 L 77 117 Q 79 115 78 109 L 73 105 Z " /><path fill="rgb(29,57,72)" stroke="rgb(29,57,72)" stroke-width="1" opacity="0.9568627450980393" d="M 96 96 L 105.5 96 L 107 97.5 L 112 109 Q 115 110.3 114 106.5 L 117 96 L 126.5 96 L 128 97.5 L 120 128 L 110.5 128 L 109 126.5 L 102.5 114 L 99 128 L 88.5 128 L 88 125.5 L 96 96 Z " /><path fill="rgb(29,57,72)" stroke="rgb(29,57,72)" stroke-width="1" opacity="0.9568627450980393" d="M 133.5 96 L 134.5 97 L 156.5 97 Q 157.8 94.8 159 97.5 L 155.5 106 Q 148.8 104.3 147 107.5 L 142 128 L 131 127.5 L 137 106 L 129.5 106 L 128 104.5 L 130 97 L 133.5 96 Z " /><path fill="rgb(29,57,72)" stroke="rgb(29,57,72)" stroke-width="1" opacity="0.9568627450980393" d="M 181.5 96 L 200.5 97 L 206 101.5 L 207 109.5 L 202.5 116 L 199 117 L 202 128 L 191.5 128 L 190 126.5 L 186.5 119 Q 183.9 118.2 185 121.5 L 183 128 L 172.5 128 L 172 126.5 L 179 99.5 L 181.5 96 Z M 190 106 L 187 111 L 194 111 L 196 108 Q 195 105 190 106 Z " /><path fill="rgb(29,57,72)" stroke="rgb(29,57,72)" stroke-width="1" opacity="0.9568627450980393" d="M 31.5 155 L 32 158 Q 34.7 159.1 34 156.5 L 36.5 155 L 33 159.5 Q 34.7 165.3 31 164 L 32 158.5 L 31.5 155 Z " /><path fill="rgb(29,57,72)" stroke="rgb(29,57,72)" stroke-width="1" opacity="0.9568627450980393" d="M 40.5 155 L 44 157.5 L 43 163 L 38.5 164 Q 35.8 162.8 37 157.5 L 40.5 155 Z M 40 157 L 38 159 Q 37 162 40 163 L 42 162 L 43 159 L 40 157 Z " /><path fill="rgb(29,57,72)" stroke="rgb(29,57,72)" stroke-width="1" opacity="0.9568627450980393" d="M 47.5 155 L 48 157.5 L 47 161.5 Q 48.5 164.5 50 161.5 L 51 155 L 53 155.5 L 52 160.5 L 49.5 164 L 46 164 L 46 157.5 L 47.5 155 Z " /><path fill="rgb(29,57,72)" stroke="rgb(29,57,72)" stroke-width="1" opacity="0.9568627450980393" d="M 55 155 Q 58.8 154 60 156.5 L 57.5 164 L 55.5 160 L 55 164 Q 52.3 165.1 53 162.5 L 55 155 Z M 56 157 L 56 159 L 59 158 L 56 157 Z " /><path fill="rgb(29,57,72)" stroke="rgb(29,57,72)" stroke-width="1" opacity="0.9568627450980393" d="M 78.5 155 L 82 157.5 L 81 163 L 76.5 164 Q 74 163 75 158.5 L 76 156 L 78.5 155 Z M 78 157 L 76 159 Q 75 162 78 163 L 80 162 L 81 159 L 78 157 Z " /><path fill="rgb(29,57,72)" stroke="rgb(29,57,72)" stroke-width="1" opacity="0.9568627450980393" d="M 84 155 L 89 155 L 89 157 L 86 158.5 Q 87 163 84.5 164 L 84 161.5 L 85 157.5 L 84 155 Z " /><path fill="rgb(29,57,72)" stroke="rgb(29,57,72)" stroke-width="1" opacity="0.9568627450980393" d="M 93.5 155 L 97 157.5 Q 96.8 162.3 93.5 164 Q 89.1 165.5 90 162.5 L 89 159.5 L 91.5 156 L 93.5 155 Z M 93 157 Q 90 158 91 162 Q 93 165 95 161 Q 97 156 93 157 Z " /><path fill="rgb(29,57,72)" stroke="rgb(29,57,72)" stroke-width="1" opacity="0.9568627450980393" d="M 100.5 155 L 104 156.5 L 104 160 Q 101.3 158.9 102 161.5 L 103 164 Q 99.7 165.3 101 160.5 L 99 161.5 L 98.5 164 L 98 161.5 L 100.5 155 Z M 100 157 Q 99 160 103 159 Q 104 156 100 157 Z " /><path fill="rgb(29,57,72)" stroke="rgb(29,57,72)" stroke-width="1" opacity="0.9568627450980393" d="M 109.5 155 Q 113.3 154 112 157 L 108 157 L 108 158.5 L 107 161.5 Q 108.2 164.3 109.5 162 L 111 162.5 L 107.5 164 Q 105 163 106 158.5 L 107 156 L 109.5 155 Z " /><path fill="rgb(29,57,72)" stroke="rgb(29,57,72)" stroke-width="1" opacity="0.9568627450980393" d="M 114.5 155 L 116.5 158 L 118 155 L 120 155.5 L 116 160.5 L 116 164 L 114 163.5 Q 116.2 162.2 115 157.5 L 114.5 155 Z " /><path fill="rgb(29,57,72)" stroke="rgb(29,57,72)" stroke-width="1" opacity="0.9568627450980393" d="M 123.5 155 L 127 156.5 L 122 157 L 121 160.5 Q 123 164.2 125 162.5 Q 125.9 165.5 121.5 164 Q 119 163 120 158.5 L 123.5 155 Z " /><path fill="rgb(29,57,72)" stroke="rgb(29,57,72)" stroke-width="1" opacity="0.9568627450980393" d="M 129.5 155 L 130 157.5 L 129 163 L 131 163.5 L 127 164 L 129.5 155 Z " /><path fill="rgb(29,57,72)" stroke="rgb(29,57,72)" stroke-width="1" opacity="0.9568627450980393" d="M 135.5 155 Q 140.3 153.7 139 157 Q 133.8 155.3 135 159 L 138 159.5 L 135 160 Q 133.5 163.7 136.5 163 L 136.5 164 Q 131.7 165.7 133 161.5 L 135.5 155 Z " /><path fill="rgb(29,57,72)" stroke="rgb(29,57,72)" stroke-width="1" opacity="0.9568627450980393" d="M 145.5 155 L 146 157.5 L 145 163 L 147 163.5 L 143 164 L 145.5 155 Z " /><path fill="rgb(29,57,72)" stroke="rgb(29,57,72)" stroke-width="1" opacity="0.9568627450980393" d="M 151.5 155 L 152 156.5 L 149.5 164 L 149 160.5 L 151.5 155 Z " /><path fill="rgb(29,57,72)" stroke="rgb(29,57,72)" stroke-width="1" opacity="0.9568627450980393" d="M 154 155 L 159 155.5 L 155 157 L 155 159 Q 157.7 157.9 157 160.5 L 154 161.5 L 153.5 164 L 153 160.5 L 154 155 Z " /><path fill="rgb(29,57,72)" stroke="rgb(29,57,72)" stroke-width="1" opacity="0.9568627450980393" d="M 161.5 155 Q 166.3 153.7 165 157 Q 159.8 155.3 161 159 L 164 159.5 L 161 160 Q 159.5 163.7 162.5 163 L 162.5 164 Q 157.7 165.7 159 161.5 L 161.5 155 Z " /><path fill="rgb(29,57,72)" stroke="rgb(29,57,72)" stroke-width="1" opacity="0.9568627450980393" d="M 168.5 155 L 171 156.5 L 168 157 L 170 162.5 Q 169.3 164.8 165.5 164 L 165.5 163 L 169 161.5 L 166 157.5 L 168.5 155 Z " /><path fill="rgb(29,57,72)" stroke="rgb(29,57,72)" stroke-width="1" opacity="0.9568627450980393" d="M 173 155 L 178 155.5 L 175 157 Q 175.9 161.7 173.5 164 L 173 161.5 L 174 157.5 L 173 155 Z " /><path fill="rgb(29,57,72)" stroke="rgb(29,57,72)" stroke-width="1" opacity="0.9568627450980393" d="M 179.5 155 L 181.5 158 L 183 155 L 185 155.5 Q 180.1 157.7 181 164 L 179 163.5 L 180 158.5 L 179.5 155 Z " /><path fill="rgb(29,57,72)" stroke="rgb(29,57,72)" stroke-width="1" opacity="0.9568627450980393" d="M 187.5 155 L 188 156.5 L 186 161.5 L 189 163.5 L 185 164 L 186 156.5 L 187.5 155 Z " /><path fill="rgb(29,57,72)" stroke="rgb(29,57,72)" stroke-width="1" opacity="0.9568627450980393" d="M 192 155 L 197 155.5 L 193 157 Q 191.9 159.7 194.5 159 L 194.5 160 L 192 161.5 Q 191.2 164.1 194.5 163 L 194.5 164 Q 188.8 165.8 191 159.5 L 192 155 Z " /><path fill="rgb(29,57,72)" stroke="rgb(29,57,72)" stroke-width="1" opacity="0.9568627450980393" d="M 72.5 156 L 73 157.5 L 71.5 164 L 70.5 160 L 68.5 163 L 66.5 160 L 64.5 164 L 64 162.5 L 66.5 157 L 68.5 161 L 72.5 156 Z " /><path fill="rgb(228,226,218)" stroke="rgb(228,226,218)" stroke-width="1" opacity="0.4666666666666667" d="M 37.5 131 L 150 131.5 L 37.5 132 L 37.5 131 Z " /><path fill="rgb(228,226,218)" stroke="rgb(228,226,218)" stroke-width="1" opacity="0.4666666666666667" d="M 171.5 131 L 170.5 133 L 171.5 131 Z " /><path fill="rgb(228,226,218)" stroke="rgb(228,226,218)" stroke-width="1" opacity="0.4666666666666667" d="M 183.5 132 L 186 133.5 L 184.5 133 L 183.5 132 Z " /><path fill="rgb(228,226,218)" stroke="rgb(228,226,218)" stroke-width="1" opacity="0.4666666666666667" d="M 184.5 135 L 185.5 137 L 184.5 135 Z " /><path fill="rgb(228,226,218)" stroke="rgb(228,226,218)" stroke-width="1" opacity="0.4666666666666667" d="M 183.5 138 L 184.5 140 L 183.5 138 Z " /><path fill="rgb(228,226,218)" stroke="rgb(228,226,218)" stroke-width="1" opacity="0.4666666666666667" d="M 167.5 141 L 168 143.5 L 167 143.5 L 167.5 141 Z " /><path fill="rgb(228,226,218)" stroke="rgb(228,226,218)" stroke-width="1" opacity="0.4666666666666667" d="M 193.5 143 L 195 145.5 L 193 146 L 193.5 143 Z " /><path fill="rgb(228,226,218)" stroke="rgb(228,226,218)" stroke-width="1" opacity="0.4666666666666667" d="M 166.5 146 L 168 148.5 L 166 147.5 L 166.5 146 Z " /><path fill="rgb(228,226,218)" stroke="rgb(228,226,218)" stroke-width="1" opacity="0.4666666666666667" d="M 182.5 147 L 183.5 149 L 182.5 147 Z " /><path fill="rgb(228,226,218)" stroke="rgb(228,226,218)" stroke-width="1" opacity="0.4666666666666667" d="M 35.5 148 L 152 148.5 L 35.5 149 L 35.5 148 Z " /><path fill="rgb(228,226,218)" stroke="rgb(228,226,218)" stroke-width="1" opacity="0.4666666666666667" d="M 175.5 148 L 178 148.5 L 175.5 149 L 175.5 148 Z " /><path fill="rgb(228,228,228)" stroke="rgb(228,228,228)" stroke-width="1" opacity="0.996078431372549" d="M 187.5 132 L 186.5 134 L 187.5 132 Z " /><path fill="rgb(228,228,228)" stroke="rgb(228,228,228)" stroke-width="1" opacity="0.996078431372549" d="M 195.5 132 L 196.5 134 L 195.5 132 Z " /><path fill="rgb(228,228,228)" stroke="rgb(228,228,228)" stroke-width="1" opacity="0.996078431372549" d="M 194.5 146 L 195 148 L 199 148.5 L 195.5 149 L 194.5 146 Z " /><path fill="rgb(228,228,228)" stroke="rgb(228,228,228)" stroke-width="1" opacity="0.996078431372549" d="M 168.5 148 L 175 148.5 L 168.5 149 L 168.5 148 Z " /><path fill="rgb(228,228,228)" stroke="rgb(228,228,228)" stroke-width="1" opacity="0.996078431372549" d="M 184.5 148 L 189 148.5 L 184.5 149 L 184.5 148 Z " /><path fill="rgb(229,229,229)" stroke="rgb(229,229,229)" stroke-width="1" opacity="1" d="M 36 132 L 151 132.5 Q 146.1 134.1 147 141.5 L 151 148 L 32.5 148 L 32 146.5 L 36 132 Z " /><path fill="rgb(229,229,229)" stroke="rgb(229,229,229)" stroke-width="1" opacity="1" d="M 171.5 132 L 182.5 132 L 185 133.5 L 181 148 L 167.5 148 L 167 144.5 L 171.5 132 Z " /><path fill="rgb(229,229,229)" stroke="rgb(229,229,229)" stroke-width="1" opacity="1" d="M 188.5 132 Q 194.5 130.5 196 133.5 L 192 148 L 183.5 148 L 183 145.5 Q 186 141.5 186 134.5 L 188.5 132 Z " /><path fill="rgb(229,229,229)" stroke="rgb(229,229,229)" stroke-width="1" opacity="1" d="M 199.5 132 Q 204.8 130.3 203 135.5 L 200 148 L 195 148 L 195 144.5 L 199.5 132 Z " /></svg>